<svg xmlns="http://www.w3.org/2000/svg" xmlns:xlink="http://www.w3.org/1999/xlink" width="500" zoomAndPan="magnify" viewBox="0 0 375 374.999991" height="500" preserveAspectRatio="xMidYMid meet" version="1.0"><defs><clipPath id="f624ea459b"><path d="M 45.027344 51 L 330 51 L 330 329 L 45.027344 329 Z M 45.027344 51 " clip-rule="nonzero"/></clipPath></defs><g clip-path="url(#f624ea459b)"><path fill="#d7a31d" d="M 187.484375 62.109375 L 203.097656 55.222656 C 203.097656 55.222656 226.238281 44.152344 248.875 58.742188 C 271.511719 73.328125 286.097656 87.917969 302.195312 82.886719 C 302.195312 82.886719 292.136719 94.960938 272.515625 92.445312 C 272.515625 92.445312 288.113281 104.015625 299.175781 127.660156 C 310.246094 151.300781 329.359375 146.773438 329.359375 146.773438 C 329.359375 146.773438 321.3125 159.351562 303.203125 158.34375 C 303.203125 158.34375 329.863281 180.980469 300.6875 221.726562 C 271.511719 262.472656 268.492188 284.605469 268.492188 284.605469 C 268.492188 284.605469 262.960938 277.0625 263.460938 267.503906 C 263.460938 267.503906 252.394531 300.703125 217.6875 313.785156 L 218.1875 297.6875 C 218.1875 297.6875 188.179688 330.828125 187.484375 328.890625 C 186.789062 330.828125 156.777344 297.6875 156.777344 297.6875 L 157.28125 313.785156 C 122.570312 300.703125 111.503906 267.503906 111.503906 267.503906 C 112.007812 277.0625 106.472656 284.605469 106.472656 284.605469 C 106.472656 284.605469 103.453125 262.472656 74.277344 221.726562 C 45.101562 180.980469 71.765625 158.34375 71.765625 158.34375 C 53.652344 159.351562 45.605469 146.773438 45.605469 146.773438 C 45.605469 146.773438 64.722656 151.300781 75.789062 127.660156 C 86.855469 104.015625 102.449219 92.445312 102.449219 92.445312 C 82.832031 94.960938 72.769531 82.886719 72.769531 82.886719 C 88.867188 87.917969 103.453125 73.328125 126.09375 58.742188 C 148.730469 44.152344 171.867188 55.222656 171.867188 55.222656 Z M 216.386719 216.910156 C 203.84375 200.269531 171.125 200.378906 158.578125 216.910156 C 158.707031 223.335938 160.171875 230.34375 163.539062 231.835938 C 166.902344 233.328125 174.753906 231.28125 178.773438 225.867188 C 178.773438 225.867188 178.363281 233.796875 174.429688 239.863281 C 179.226562 241.90625 183.132812 242.648438 187.484375 242.648438 C 191.832031 242.648438 195.738281 241.90625 200.535156 239.863281 C 196.601562 233.796875 196.191406 225.867188 196.191406 225.867188 C 200.214844 231.28125 208.0625 233.328125 211.429688 231.835938 C 214.792969 230.34375 216.257812 223.335938 216.386719 216.910156 Z M 167.5 170.386719 L 207.464844 170.386719 C 207.464844 170.386719 207.675781 185.621094 189.785156 185.621094 C 189.785156 185.621094 198.945312 206.554688 216.535156 206.554688 C 243.582031 206.554688 236.019531 170.5 223.210938 162.515625 C 222.359375 162.070312 222.769531 162.242188 223.210938 162.515625 C 229.339844 165.699219 254.457031 177.390625 254.457031 155.132812 C 254.457031 129.785156 238.828125 134.855469 238.828125 134.855469 C 235.148438 135.5625 213.144531 139.214844 204.96875 151.285156 C 204.96875 151.285156 199.734375 130.542969 227.832031 131.023438 C 238.207031 131.203125 239.742188 116.113281 239.742188 116.113281 C 239.742188 88.015625 187.359375 106.652344 187.359375 106.652344 C 187.359375 106.652344 135.226562 88.015625 135.226562 116.113281 C 135.226562 116.113281 136.757812 131.203125 147.136719 131.023438 C 175.230469 130.542969 170 151.285156 170 151.285156 C 161.820312 139.214844 139.816406 135.5625 136.140625 134.855469 C 136.140625 134.855469 120.507812 129.785156 120.507812 155.132812 C 120.507812 177.390625 145.628906 165.699219 151.753906 162.515625 C 152.195312 162.242188 152.609375 162.070312 151.753906 162.515625 C 138.945312 170.5 131.382812 206.554688 158.429688 206.554688 C 176.023438 206.554688 185.183594 185.621094 185.183594 185.621094 C 167.292969 185.621094 167.5 170.386719 167.5 170.386719 Z M 167.5 170.386719 " fill-opacity="1" fill-rule="evenodd"/></g></svg>